<?xml version="1.0" encoding="UTF-8"?>
<svg id="Layer_2" data-name="Layer 2" xmlns="http://www.w3.org/2000/svg" viewBox="0 0 61.35 100.68">
  <defs>
    <style>
      .cls-1 {
        fill: #00b3eb;
      }
    </style>
  </defs>
  <g id="layer">
    <path class="cls-1" d="m61.35,88.26V0H0v74.53s0,1.31,0,1.31v24.84h61.35v-12.42ZM1,12.73V1h59.35v11.73H1Zm0,12.42v-11.73h59.35v11.73H1Zm0,12.42v-11.73h59.35s0,11.73,0,11.73H1Zm0,12.42v-11.73h59.35v11.73H1Zm0,12.42v-11.73h59.35v11.73H1Zm0,12.42v-11.73h59.35v11.73H1Zm0,12.42v-11.73h59.35v11.73s-59.35,0-59.35,0Zm0,12.42v-11.73h59.35v11.73H1Z"/>
  </g>
</svg>