<?xml version="1.0" encoding="utf-8"?>
<!-- Generator: Adobe Illustrator 27.2.0, SVG Export Plug-In . SVG Version: 6.00 Build 0)  -->
<svg version="1.1" id="Layer_2_00000048480089730602602990000016906970727829047741_"
	 xmlns="http://www.w3.org/2000/svg" xmlns:xlink="http://www.w3.org/1999/xlink" x="0px" y="0px" viewBox="0 0 66.2 66.2"
	 style="enable-background:new 0 0 66.2 66.2;" xml:space="preserve">
<style type="text/css">
	.st0{fill:#FFFFFF;}
</style>
<g>
	<path class="st0" d="M33.1,8.5c-13.5,0-24.5,11-24.5,24.5s11,24.5,24.5,24.5s24.5-11,24.5-24.5S46.6,8.5,33.1,8.5z M33.1,56.8
		C20,56.8,9.4,46.2,9.4,33.1S20,9.4,33.1,9.4S56.8,20,56.8,33.1S46.2,56.8,33.1,56.8z"/>
	<path class="st0" d="M33.1,0C14.9,0,0,14.9,0,33.1s14.9,33.1,33.1,33.1s33.1-14.8,33.1-33.1S51.3,0,33.1,0z M33.1,65.3
		c-17.8,0-32.2-14.5-32.2-32.2S15.3,0.9,33.1,0.9s32.2,14.5,32.2,32.2S50.9,65.3,33.1,65.3L33.1,65.3z"/>
</g>
<g>
	<path class="st0" d="M17.1,13.2c3.7-3,8.3-5,13.3-5.5V2C23.8,2.5,17.8,5.1,13,9.2L17.1,13.2z"/>
	<path class="st0" d="M7.7,30.4c0.5-5,2.5-9.6,5.5-13.3L9.2,13c-4,4.8-6.6,10.8-7.2,17.4H7.7z"/>
	<path class="st0" d="M13.2,49.1c-3-3.7-5-8.3-5.5-13.3H2c0.6,6.6,3.2,12.6,7.2,17.4L13.2,49.1z"/>
	<path class="st0" d="M35.8,2v5.8c5,0.5,9.6,2.5,13.3,5.5l4.1-4.1C48.4,5.1,42.4,2.5,35.8,2z"/>
	<path class="st0" d="M52.9,17.1c3,3.7,5,8.3,5.5,13.3h5.7C63.7,23.8,61,17.8,57,13L52.9,17.1z"/>
	<path class="st0" d="M58.5,35.8c-0.5,5-2.5,9.6-5.5,13.3l4.1,4.1c4-4.8,6.6-10.8,7.2-17.4H58.5z"/>
	<path class="st0" d="M30.4,58.5c-5-0.5-9.6-2.5-13.3-5.5L13,57c4.8,4,10.8,6.6,17.4,7.2V58.5z"/>
	<path class="st0" d="M49.1,52.9c-3.7,3-8.3,5-13.3,5.5v5.8c6.6-0.6,12.6-3.2,17.4-7.2L49.1,52.9z"/>
</g>
</svg>
