<?xml version="1.0" encoding="UTF-8"?>
<svg id="Layer_2" data-name="Layer 2" xmlns="http://www.w3.org/2000/svg" viewBox="0 0 66.19 66.19">
  <defs>
    <style>
      .cls-1 {
        fill: #00b3eb;
      }
    </style>
  </defs>
  <g id="layer">
    <g>
      <g>
        <path class="cls-1" d="m33.09,8.54c-13.54,0-24.55,11.02-24.55,24.55s11.01,24.55,24.55,24.55,24.55-11.02,24.55-24.55-11.01-24.55-24.55-24.55Zm0,48.25c-13.07,0-23.7-10.63-23.7-23.7s10.63-23.7,23.7-23.7,23.7,10.63,23.7,23.7-10.63,23.7-23.7,23.7Z"/>
        <path class="cls-1" d="m33.09,0C14.85,0,0,14.85,0,33.09s14.85,33.09,33.09,33.09,33.09-14.85,33.09-33.09S51.34,0,33.09,0Zm0,65.34C15.32,65.34.85,50.87.85,33.09S15.32.85,33.09.85s32.24,14.46,32.24,32.24-14.46,32.24-32.24,32.24Z"/>
      </g>
      <path class="cls-1" d="m23.98,3.99c-4.86,1.53-9.21,4.21-12.69,7.77,1.07.93,2.13,1.89,3.16,2.88,2.93-2.96,6.57-5.2,10.63-6.51-.37-1.38-.74-2.76-1.1-4.14Z"/>
      <path class="cls-1" d="m11.52,48.04c-2.95-4.25-4.69-9.4-4.69-14.95,0-3.23.6-6.32,1.67-9.17-1.25-.69-2.52-1.35-3.8-1.99-1.37,3.46-2.14,7.22-2.14,11.16,0,6.62,2.12,12.74,5.71,17.75,1.08-.93,2.17-1.86,3.24-2.8Z"/>
      <path class="cls-1" d="m61.83,22.87c-3.21-9-10.52-16.07-19.68-18.92-.47,1.34-.94,2.68-1.42,4.02,7.97,2.43,14.29,8.57,17.06,16.38,1.31-.56,2.67-1.04,4.04-1.48Z"/>
      <path class="cls-1" d="m59.2,35.8c-.32,3.07-1.16,6-2.44,8.67,1.17.84,2.33,1.69,3.52,2.51,1.73-3.37,2.84-7.11,3.21-11.06-1.43-.01-2.85-.05-4.28-.11Z"/>
      <path class="cls-1" d="m50.72,52.52c-4.66,4.24-10.84,6.84-17.62,6.84-1.21,0-2.4-.11-3.57-.27-.37,1.39-.76,2.78-1.16,4.16,1.54.25,3.12.38,4.73.38,7.93,0,15.15-3.05,20.59-8.02-.99-1.03-1.98-2.05-2.96-3.08Z"/>
    </g>
  </g>
</svg>