<?xml version="1.0" encoding="utf-8"?>
<!-- Generator: Adobe Illustrator 27.2.0, SVG Export Plug-In . SVG Version: 6.00 Build 0)  -->
<svg version="1.1" id="Layer_2_00000065789857722724704750000007808076653863973800_"
	 xmlns="http://www.w3.org/2000/svg" xmlns:xlink="http://www.w3.org/1999/xlink" x="0px" y="0px" viewBox="0 0 58 58.1"
	 style="enable-background:new 0 0 58 58.1;" xml:space="preserve">
<style type="text/css">
	.st0{fill:#FFFFFF;}
</style>
<g>
	<g>
		<path class="st0" d="M20.9,58.1h5.3l-3-3h-5.3C18.8,56.1,19.9,57.1,20.9,58.1z"/>
		<path class="st0" d="M3,40.3V35l-3-3v5.4C1,38.4,2,39.4,3,40.3z"/>
		<path class="st0" d="M3,48.5v-6.8c-1-1-2-2-3-3v6.8L3,48.5L3,48.5z"/>
		<path class="st0" d="M12.6,58.1h6.9c-1-1-2-2-3-3H9.6L12.6,58.1z"/>
		<polygon class="st0" points="8.2,55.1 3,55.1 3,50 0,47 0,58.1 11.2,58.1 		"/>
	</g>
	<path class="st0" d="M0.1,0v58.1h57.8V0H0.1z M56.9,57.1H1.1v-56h55.8V57.1z"/>
	<path class="st0" d="M17.9,16.6c0.4,0.4,0.4,1,0,1.4l0,0c-0.4,0.4-1,0.4-1.4,0L5.4,5.8c-0.1-0.1-0.1-0.2,0-0.3l0,0
		c0.1-0.1,0.2-0.1,0.3,0L17.9,16.6L17.9,16.6z"/>
	<path class="st0" d="M53.1,53.1c0.1,0.1,0.1,0.2,0,0.2l0,0c-0.1,0.1-0.2,0.1-0.2,0l-9.5-8.6c-0.3-0.3-0.3-0.8,0-1.1l0,0
		c0.3-0.3,0.8-0.3,1.1,0L53.1,53.1L53.1,53.1z"/>
	<path class="st0" d="M44.5,15.2c-0.3,0.3-0.8,0.3-1.1,0l0,0c-0.3-0.3-0.3-0.8,0-1.1l9.5-8.6c0.1-0.1,0.2-0.1,0.2,0l0,0
		c0.1,0.1,0.1,0.2,0,0.2L44.5,15.2L44.5,15.2z"/>
	<path class="st0" d="M5.6,53.3c-0.1,0.1-0.2,0.1-0.2,0l0,0c-0.1-0.1-0.1-0.2,0-0.2l8.6-9.5c0.3-0.3,0.8-0.3,1.1,0l0,0
		c0.3,0.3,0.3,0.8,0,1.1L5.6,53.3L5.6,53.3z"/>
	<path class="st0" d="M29.3,27.6C29.3,27.6,29.3,27.7,29.3,27.6L29.3,27.6c-0.1,0.1-0.1,0-0.1,0l0-4.7c0,0,0,0,0,0l0,0c0,0,0,0,0,0
		C29.3,22.9,29.3,27.6,29.3,27.6z"/>
	<path class="st0" d="M29.3,35.9C29.3,35.9,29.3,35.9,29.3,35.9L29.3,35.9C29.3,35.9,29.2,35.9,29.3,35.9l-0.1-4.7
		c0,0,0-0.1,0.1-0.1l0,0c0,0,0.1,0,0.1,0.1C29.3,31.2,29.3,35.9,29.3,35.9z"/>
	<path class="st0" d="M31.1,29.5C31.1,29.5,31,29.4,31.1,29.5L31.1,29.5c-0.1-0.1,0-0.1,0-0.1l4.7,0c0,0,0,0,0,0l0,0c0,0,0,0,0,0
		C35.7,29.4,31.1,29.5,31.1,29.5z"/>
	<path class="st0" d="M22.8,29.4C22.8,29.4,22.8,29.4,22.8,29.4L22.8,29.4C22.8,29.4,22.8,29.4,22.8,29.4l4.7-0.1c0,0,0.1,0,0.1,0.1
		l0,0c0,0,0,0.1-0.1,0.1C27.5,29.5,22.8,29.4,22.8,29.4z"/>
	<path class="st0" d="M0.1,20.9v5.3l3-3v-5.3C2.1,18.8,1.1,19.9,0.1,20.9z"/>
	<path class="st0" d="M17.9,3h5.4l3-3h-5.4C19.9,1,18.9,2,17.9,3z"/>
	<path class="st0" d="M9.7,3h6.8c1-1,2-2,3-3h-6.8L9.7,3L9.7,3z"/>
	<path class="st0" d="M0.1,12.6v6.9c1-1,2-2,3-3V9.6L0.1,12.6z"/>
	<polygon class="st0" points="3.1,8.2 3.1,3 8.3,3 11.3,0 0.1,0 0.1,11.2 	"/>
	<g>
		<path class="st0" d="M37.1,0h-5.3l3,3h5.3C39.1,2,38.1,1,37.1,0z"/>
		<path class="st0" d="M54.9,17.8v5.4l3,3v-5.4C56.9,19.8,55.9,18.8,54.9,17.8z"/>
		<path class="st0" d="M54.9,9.6v6.8c1,1,2,2,3,3v-6.8L54.9,9.6L54.9,9.6z"/>
		<path class="st0" d="M45.3,0h-6.9c1,1,2,2,3,3h6.8L45.3,0z"/>
		<polygon class="st0" points="49.7,3 54.9,3 54.9,8.2 57.9,11.2 57.9,0 46.7,0 		"/>
	</g>
	<g>
		<path class="st0" d="M58,36.9v-5.3l-3,3v5.3C56,38.9,57,37.9,58,36.9z"/>
		<path class="st0" d="M40.2,54.8h-5.4l-3,3h5.4C38.2,56.8,39.2,55.8,40.2,54.8z"/>
		<path class="st0" d="M48.4,54.8h-6.8c-1,1-2,2-3,3h6.8L48.4,54.8L48.4,54.8z"/>
		<path class="st0" d="M58,45.2v-6.9c-1,1-2,2-3,3v6.8C55,48.2,58,45.2,58,45.2z"/>
		<polygon class="st0" points="55,49.6 55,54.8 49.8,54.8 46.8,57.8 58,57.8 58,46.6 		"/>
	</g>
	<path class="st0" d="M27.5,27.6C27.5,27.6,27.5,27.6,27.5,27.6L27.5,27.6C27.5,27.7,27.5,27.7,27.5,27.6l-1.6-1.5c0,0,0,0,0,0l0,0
		c0,0,0,0,0,0C26,26.1,27.5,27.6,27.5,27.6z"/>
	<path class="st0" d="M31,31.2C31,31.2,31,31.2,31,31.2L31,31.2C31,31.2,31.1,31.1,31,31.2l1.6,1.5c0,0,0,0,0,0l0,0c0,0,0,0,0,0
		C32.6,32.7,31,31.2,31,31.2z"/>
	<path class="st0" d="M31.1,27.9C31.1,27.9,31,27.9,31.1,27.9L31.1,27.9C31,27.9,31,27.9,31.1,27.9l1.5-1.6c0,0,0,0,0,0l0,0
		c0,0,0,0,0,0C32.6,26.4,31.1,27.9,31.1,27.9z"/>
	<path class="st0" d="M27.4,31.1C27.4,31.1,27.5,31.1,27.4,31.1L27.4,31.1C27.5,31.2,27.6,31.2,27.4,31.1L26,32.7c0,0,0,0,0,0l0,0
		c0,0,0,0,0,0C25.9,32.7,27.4,31.1,27.4,31.1z"/>
</g>
</svg>
