<?xml version="1.0" encoding="UTF-8"?>
<svg id="Layer_2" data-name="Layer 2" xmlns="http://www.w3.org/2000/svg" viewBox="0 0 58 58.14">
  <defs>
    <style>
      .cls-1 {
        fill: #00b3eb;
      }
    </style>
  </defs>
  <g id="layer">
    <g>
      <g>
        <path class="cls-1" d="m20.85,58.14h5.31l-3-3h-5.32c1,1,2.01,2,3.01,3Z"/>
        <path class="cls-1" d="m3,40.35v-5.37l-3-3v5.38c1,1,2,1.99,3,2.99Z"/>
        <path class="cls-1" d="m3,48.55v-6.8c-1-1-2-1.99-3-2.99v6.8l3,3Z"/>
        <path class="cls-1" d="m12.59,58.14h6.86c-1-1-2.01-2-3.01-3h-6.85l3,3Z"/>
        <polygon class="cls-1" points="8.19 55.14 3 55.14 3 49.96 0 46.96 0 58.14 11.19 58.14 8.19 55.14"/>
      </g>
      <path class="cls-1" d="m1.03,1.03v56.12h56.12V1.03H1.03Zm55.12,55.12H2.03V2.03h54.12v54.12Z"/>
      <path class="cls-1" d="m15.1,14.11c.31.31.31.81,0,1.12h0c-.31.31-.81.31-1.12,0L5.39,5.73c-.06-.06-.06-.15,0-.2h0c.06-.06.15-.06.2,0l9.5,8.59Z"/>
      <path class="cls-1" d="m53.14,53.07c.06.06.06.15,0,.2h0c-.06.06-.15.06-.2,0l-9.5-8.59c-.31-.31-.31-.81,0-1.12h0c.31-.31.81-.31,1.12,0l8.59,9.5Z"/>
      <path class="cls-1" d="m44.55,15.23c-.31.31-.81.31-1.12,0h0c-.31-.31-.31-.81,0-1.12l9.5-8.59c.06-.06.15-.06.2,0h0c.06.06.06.15,0,.2l-8.59,9.5Z"/>
      <path class="cls-1" d="m5.59,53.27c-.06.06-.15.06-.2,0h0c-.06-.06-.06-.15,0-.2l8.59-9.5c.31-.31.81-.31,1.12,0h0c.31.31.31.81,0,1.12l-9.5,8.59Z"/>
      <path class="cls-1" d="m29.33,27.6s-.03.07-.07.07h0s-.07-.03-.07-.07l.04-4.67s.01-.03.03-.03h0s.03.01.03.03l.04,4.67Z"/>
      <path class="cls-1" d="m29.29,35.87s-.01.03-.03.03h0s-.03-.01-.03-.03l-.04-4.67s.03-.07.07-.07h0s.07.03.07.07l-.04,4.67Z"/>
      <path class="cls-1" d="m31.06,29.47s-.07-.03-.07-.07h0s.03-.07.07-.07l4.67.04s.03.01.03.03h0s-.01.03-.03.03l-4.67.04Z"/>
      <path class="cls-1" d="m22.79,29.43s-.03-.01-.03-.03h0s.01-.03.03-.03l4.67-.04s.07.03.07.07h0s-.03.07-.07.07l-4.67-.04Z"/>
      <g>
        <path class="cls-1" d="m.1,20.85v5.31l3-3v-5.32c-1,1-2,2.01-3,3.01Z"/>
        <path class="cls-1" d="m17.9,3h5.37l3-3h-5.38c-1,1-1.99,2-2.99,3Z"/>
        <path class="cls-1" d="m9.69,3h6.8c1-1,1.99-2,2.99-3h-6.8l-3,3Z"/>
        <path class="cls-1" d="m.1,12.59v6.86c1-1,2-2.01,3-3.01v-6.85L.1,12.59Z"/>
        <polygon class="cls-1" points="3.1 8.19 3.1 3 8.28 3 11.28 0 .1 0 .1 11.19 3.1 8.19"/>
      </g>
      <g>
        <path class="cls-1" d="m37.07.03h-5.31l3,3h5.32c-1-1-2.01-2-3.01-3Z"/>
        <path class="cls-1" d="m54.92,17.83v5.37l3,3v-5.38c-1-1-2-1.99-3-2.99Z"/>
        <path class="cls-1" d="m54.92,9.62v6.8c1,1,2,1.99,3,2.99v-6.8l-3-3Z"/>
        <path class="cls-1" d="m45.33.03h-6.86c1,1,2.01,2,3.01,3h6.85L45.33.03Z"/>
        <polygon class="cls-1" points="49.74 3.03 54.92 3.03 54.92 8.22 57.92 11.22 57.92 .03 46.74 .03 49.74 3.03"/>
      </g>
      <g>
        <path class="cls-1" d="m58,36.91v-5.31l-3,3v5.32c1-1,2-2.01,3-3.01Z"/>
        <path class="cls-1" d="m40.2,54.76h-5.37l-3,3h5.38c1-1,1.99-2,2.99-3Z"/>
        <path class="cls-1" d="m48.4,54.76h-6.8c-1,1-1.99,2-2.99,3h6.8l3-3Z"/>
        <path class="cls-1" d="m58,45.17v-6.86c-1,1-2,2.01-3,3.01v6.85l3-3Z"/>
        <polygon class="cls-1" points="55 49.58 55 54.76 49.81 54.76 46.81 57.76 58 57.76 58 46.58 55 49.58"/>
      </g>
    </g>
  </g>
</svg>