<?xml version="1.0" encoding="utf-8"?>
<!-- Generator: Adobe Illustrator 27.2.0, SVG Export Plug-In . SVG Version: 6.00 Build 0)  -->
<svg version="1.1" id="Layer_2_00000065789857722724704750000007808076653863973800_"
	 xmlns="http://www.w3.org/2000/svg" xmlns:xlink="http://www.w3.org/1999/xlink" x="0px" y="0px" viewBox="0 0 22.9 40.3"
	 style="enable-background:new 0 0 22.9 40.3;" xml:space="preserve">
<style type="text/css">
	.st0{fill:#FFFFFF;}
</style>
<path class="st0" d="M3,22.5v-5.3l-3-3v5.4C1,20.6,2,21.6,3,22.5z"/>
<path class="st0" d="M3,30.7v-6.8c-1-1-2-2-3-3v6.8L3,30.7L3,30.7z"/>
<polygon class="st0" points="8.2,37.3 3,37.3 3,32.2 0,29.2 0,40.3 11.2,40.3 "/>
<path class="st0" d="M0.1,0v40.3h22.8V0H0.1z M22.5,39.6h-22V0.8h22C22.5,0.8,22.5,39.6,22.5,39.6z"/>
<polygon class="st0" points="3,8.3 3,3.1 8.2,3.1 11.2,0.1 0,0.1 0,11.3 "/>
<polygon class="st0" points="14.2,3.1 19.4,3.1 19.4,8.3 22.4,11.3 22.4,0.1 11.2,0.1 "/>
<path class="st0" d="M22.4,19.4v-5.3l-3,3v5.3C20.4,21.4,21.4,20.4,22.4,19.4z"/>
<path class="st0" d="M22.4,27.7v-6.9c-1,1-2,2-3,3v6.8C19.4,30.7,22.4,27.7,22.4,27.7z"/>
<polygon class="st0" points="19.4,32.1 19.4,37.3 14.2,37.3 11.2,40.3 22.4,40.3 22.4,29.1 "/>
</svg>
