<?xml version="1.0" encoding="utf-8"?>
<!-- Generator: Adobe Illustrator 27.2.0, SVG Export Plug-In . SVG Version: 6.00 Build 0)  -->
<svg version="1.1" id="Layer_2_00000048480089730602602990000016906970727829047741_"
	 xmlns="http://www.w3.org/2000/svg" xmlns:xlink="http://www.w3.org/1999/xlink" x="0px" y="0px" viewBox="0 0 17 17.3"
	 style="enable-background:new 0 0 17 17.3;" xml:space="preserve">
<style type="text/css">
	.st0{fill:none;stroke:#FFFFFF;stroke-width:1.75;stroke-miterlimit:10;}
</style>
<path class="st0" d="M16.2,8.5h-1.8c-0.1-3.1-2.6-5.6-5.7-5.7V0.9H8.5v1.9c-3.1,0-5.7,2.6-5.8,5.7H0.9v0.3h1.8
	c0.1,3.2,2.6,5.7,5.8,5.8v1.9h0.3v-1.9c3.1-0.1,5.6-2.6,5.7-5.8h1.8V8.5z M8.7,14.4v-1.8H8.5v1.8c-3.1,0-5.6-2.5-5.7-5.6h1.9V8.5
	H2.8c0.1-3,2.6-5.5,5.6-5.5v1.8h0.3V2.9c3,0.1,5.4,2.5,5.5,5.5h-1.9v0.3h1.9C14.2,11.8,11.8,14.2,8.7,14.4z"/>
</svg>
