<?xml version="1.0" encoding="UTF-8"?>
<svg id="Layer_1" data-name="Layer 1" xmlns="http://www.w3.org/2000/svg" viewBox="0 0 3000 500">
  <defs>
    <style>
      .cls-1 {
        fill: #f1f2f2;
      }
    </style>
  </defs>
  <path class="cls-1" d="m3000,485.46v-35.58c-4.85-2.89-11.3-6.72-16.14-9.6v-13.49l16.14,9.6v-66.47c-4.85-2.89-11.3-6.72-16.14-9.6v-13.49c4.84,2.88,11.29,6.72,16.14,9.6v-51.06l-16.14-9.6v-91.52l16.14-9.6v-51.06c-4.85,2.88-11.3,5.76-16.14,9.61v-12.52c4.84-2.88,11.29-6.72,16.14-9.6v-65.51l-16.14,9.6v-14.45c4.84-2.88,11.29-6.72,16.14-9.6V13.08h-83.08l-16.16-13.08h-85.78c4.85,4.36,9.7,8.72,14.55,13.08h-22.66c-4.85-4.36-9.7-8.72-14.55-13.08h-111.67l14.55,13.08h-22.66l-14.55-13.08h-74.48l-11.31,13.08h-24.28l14.55-13.08h-110.05c-4.85,4.36-9.7,8.72-14.55,13.08h-21.04c4.85-4.36,9.7-8.72,14.55-13.08h-85.78l-16.16,13.08h-158.6l-16.16-13.08h-85.78c4.85,4.36,9.7,8.72,14.55,13.08h-22.66c-4.85-4.36-9.7-8.72-14.55-13.08h-111.67l14.55,13.08h-22.66l-14.55-13.08h-74.48l-11.31,13.08h-24.28l14.55-13.08h-110.05c-4.85,4.36-9.7,8.72-14.55,13.08h-21.04c4.85-4.36,9.7-8.72,14.55-13.08h-85.78l-16.16,13.08h-158.6l-16.16-13.08h-85.78c4.85,4.36,9.7,8.72,14.55,13.08h-22.66c-4.85-4.36-9.7-8.72-14.55-13.08h-111.67l14.55,13.08h-22.66l-14.55-13.08h-74.48l-11.31,13.08h-24.28l14.55-13.08h-110.05c-4.85,4.36-9.7,8.72-14.55,13.08h-21.04c4.85-4.36,9.7-8.72,14.55-13.08h-85.78l-16.16,13.08h-158.6l-16.16-13.08h-85.78c4.85,4.36,9.7,8.72,14.55,13.08h-22.66c-4.85-4.36-9.7-8.72-14.55-13.08h-111.67l14.55,13.08h-22.66l-14.55-13.08h-74.48l-11.31,13.08h-24.28l14.55-13.08h-110.05c-4.85,4.36-9.7,8.72-14.55,13.08h-21.04c4.85-4.36,9.7-8.72,14.55-13.08h-85.78l-16.16,13.08H0v36.03l17.8,9.63v15.41L0,63.56v65.51c6.47,3.85,11.33,6.74,17.8,10.59v12.52c-6.47-2.89-11.33-6.74-17.8-9.63v51.06l17.8,10.59v91.52l-17.8,9.63v51.06c6.47-2.89,11.33-6.74,17.8-9.63v13.49c-6.47,3.85-11.33,6.74-17.8,10.59v66.47l17.8-10.59v13.49l-17.8,9.63v35.58h84.7l16.18,14.54h85.78c-4.85-4.36-11.33-10.18-16.18-14.54h22.66c4.85,4.36,11.32,10.18,16.18,14.54h111.67l-16.18-14.54h22.66l16.18,14.54h74.46l16.18-14.54h24.28l-16.18,14.54h110.05c4.85-4.36,11.33-10.18,16.18-14.54h21.04c-4.85,4.36-11.32,10.18-16.18,14.54h85.78l16.18-14.54h155.37l16.18,14.54h85.78c-4.85-4.36-11.33-10.18-16.18-14.54h22.66c4.85,4.36,11.32,10.18,16.18,14.54h111.67l-16.18-14.54h22.66l16.18,14.54h74.46l16.18-14.54h24.28l-16.18,14.54h110.05c4.85-4.36,11.33-10.18,16.18-14.54h21.04c-4.85,4.36-11.32,10.18-16.18,14.54h85.78l16.18-14.54h155.37l16.18,14.54h85.78c-4.85-4.36-11.33-10.18-16.18-14.54h22.66c4.85,4.36,11.32,10.18,16.18,14.54h111.67l-16.18-14.54h22.66l16.18,14.54h74.46l16.18-14.54h24.28l-16.18,14.54h110.05c4.85-4.36,11.33-10.18,16.18-14.54h21.04c-4.85,4.36-11.32,10.18-16.18,14.54h85.78l16.18-14.54h155.37l16.18,14.54h85.78c-4.85-4.36-11.33-10.18-16.18-14.54h22.66c4.85,4.36,11.32,10.18,16.18,14.54h111.67l-16.18-14.54h22.66l16.18,14.54h74.46l16.18-14.54h24.28l-16.18,14.54h110.05c4.85-4.36,11.33-10.18,16.18-14.54h21.04c-4.85,4.36-11.32,10.18-16.18,14.54h85.78l16.18-14.54h86.32Z"/>
</svg>