<?xml version="1.0" encoding="utf-8"?>
<!-- Generator: Adobe Illustrator 28.1.0, SVG Export Plug-In . SVG Version: 6.00 Build 0)  -->
<svg version="1.1" id="Layer_2_00000048480089730602602990000016906970727829047741_"
	 xmlns="http://www.w3.org/2000/svg" xmlns:xlink="http://www.w3.org/1999/xlink" x="0px" y="0px" viewBox="0 0 66.2 66.2"
	 style="enable-background:new 0 0 66.2 66.2;" xml:space="preserve">
<style type="text/css">
	.st0{fill:#FFFFFF;}
</style>
<path class="st0" d="M33.1,8.6c-13.5,0-24.5,11-24.5,24.5s11,24.5,24.5,24.5s24.5-11,24.5-24.5S46.6,8.6,33.1,8.6z M33.1,56.9
	C20,56.9,9.4,46.3,9.4,33.2S20,9.5,33.1,9.5s23.7,10.6,23.7,23.7S46.2,56.9,33.1,56.9z"/>
<path class="st0" d="M33.1,0C14.9,0,0,14.9,0,33.1s14.9,33.1,33.1,33.1s33.1-14.8,33.1-33.1S51.3,0,33.1,0z M33.1,65.3
	c-17.8,0-32.2-14.5-32.2-32.2S15.3,0.9,33.1,0.9s32.2,14.5,32.2,32.2S50.9,65.3,33.1,65.3L33.1,65.3z"/>
<g>
	<path class="st0" d="M9.9,43.5l-5.5,1.8c1.9,4.4,4.7,8.3,8.3,11.3l3.4-4.6C13.5,49.6,11.4,46.7,9.9,43.5z"/>
	<path class="st0" d="M9.9,22.7c1.5-3.2,3.6-6.1,6.2-8.5l-3.4-4.6c-3.5,3.1-6.4,7-8.3,11.3L9.9,22.7z"/>
	<path class="st0" d="M7.7,33.1c0-1.8,0.2-3.6,0.5-5.2l-5.4-1.8c-0.5,2.3-0.8,4.6-0.8,7c0,2.4,0.3,4.8,0.8,7l5.4-1.8
		C7.9,36.7,7.7,34.9,7.7,33.1z"/>
	<path class="st0" d="M58.5,33.1c0,1.8-0.2,3.6-0.5,5.2l5.4,1.8c0.5-2.3,0.8-4.6,0.8-7c0-2.4-0.3-4.8-0.8-7L58,27.9
		C58.3,29.5,58.5,31.3,58.5,33.1z"/>
	<path class="st0" d="M56.3,43.5c-1.5,3.2-3.6,6.1-6.2,8.5l3.4,4.6c3.5-3.1,6.4-7,8.3-11.3L56.3,43.5z"/>
	<path class="st0" d="M20.4,11.1c3-1.7,6.4-2.9,10-3.3V2.1C25.6,2.5,21,4,17.1,6.4L20.4,11.1z"/>
	<path class="st0" d="M30.4,58.4c-3.6-0.4-7-1.5-10-3.3l-3.4,4.6c4,2.4,8.5,3.9,13.3,4.3V58.4z"/>
	<path class="st0" d="M45.8,55.1c-3,1.7-6.4,2.9-10,3.3v5.7c4.8-0.4,9.4-1.9,13.3-4.3L45.8,55.1z"/>
	<path class="st0" d="M56.3,22.7l5.5-1.8c-1.9-4.4-4.7-8.3-8.3-11.3l-3.4,4.6C52.7,16.6,54.8,19.5,56.3,22.7z"/>
	<path class="st0" d="M35.8,7.8c3.6,0.4,7,1.5,10,3.3l3.4-4.6c-4-2.4-8.5-3.9-13.3-4.3V7.8z"/>
</g>
</svg>
