<?xml version="1.0" encoding="utf-8"?>
<!-- Generator: Adobe Illustrator 28.2.0, SVG Export Plug-In . SVG Version: 6.00 Build 0)  -->
<svg version="1.1" id="Layer_2_00000048480089730602602990000016906970727829047741_"
	 xmlns="http://www.w3.org/2000/svg" xmlns:xlink="http://www.w3.org/1999/xlink" x="0px" y="0px" viewBox="0 0 66.2 66.2"
	 style="enable-background:new 0 0 66.2 66.2;" xml:space="preserve">
<style type="text/css">
	.st0{fill:#FFFFFF;}
</style>
<path class="st0" d="M33.1,8.6c-13.5,0-24.5,11-24.5,24.5s11,24.5,24.5,24.5s24.5-11,24.5-24.5S46.6,8.6,33.1,8.6z M33.1,56.9
	C20,56.9,9.4,46.3,9.4,33.2S20,9.5,33.1,9.5s23.7,10.6,23.7,23.7S46.2,56.9,33.1,56.9z"/>
<path class="st0" d="M33.1,0C14.9,0,0,14.9,0,33.1s14.9,33.1,33.1,33.1s33.1-14.8,33.1-33.1S51.3,0,33.1,0z M33.1,65.3
	c-17.8,0-32.2-14.5-32.2-32.2S15.3,0.9,33.1,0.9s32.2,14.5,32.2,32.2S50.9,65.3,33.1,65.3L33.1,65.3z"/>
<g>
	<path class="st0" d="M24.6,9.1c1.8-0.6,3.8-1.1,5.8-1.3V2c-2.9,0.3-5.7,0.9-8.3,1.9L24.6,9.1z"/>
	<path class="st0" d="M35.8,2v5.8c2,0.2,3.9,0.7,5.8,1.3l2.5-5.2C41.5,2.9,38.7,2.3,35.8,2z"/>
	<path class="st0" d="M3.4,23.5l5.7,1.3c0.6-1.9,1.5-3.7,2.6-5.3l-4.5-3.6C5.5,18.2,4.3,20.8,3.4,23.5z"/>
	<path class="st0" d="M11.6,46.7c-1-1.7-1.9-3.4-2.6-5.3l-5.7,1.3c0.9,2.7,2.1,5.3,3.7,7.6L11.6,46.7z"/>
	<path class="st0" d="M7.7,33.1c0-1,0.1-2,0.2-3l-5.7-1.3c-0.2,1.4-0.3,2.8-0.3,4.2c0,1.4,0.1,2.8,0.3,4.2L7.8,36
		C7.7,35.1,7.7,34.1,7.7,33.1z"/>
	<path class="st0" d="M58.5,33.1c0,1-0.1,2-0.2,3l5.7,1.3c0.2-1.4,0.3-2.8,0.3-4.2c0-1.4-0.1-2.8-0.3-4.2l-5.7,1.3
		C58.5,31.1,58.5,32.1,58.5,33.1z"/>
	<path class="st0" d="M59.1,15.9l-4.6,3.6c1,1.7,1.9,3.4,2.6,5.3l5.7-1.3C61.9,20.8,60.7,18.2,59.1,15.9z"/>
	<path class="st0" d="M15.1,15.2c1.4-1.4,2.9-2.6,4.6-3.7l-2.5-5.2c-2.4,1.5-4.7,3.2-6.6,5.3L15.1,15.2z"/>
	<path class="st0" d="M19.7,54.7c-1.7-1-3.2-2.3-4.6-3.7l-4.5,3.6c2,2.1,4.2,3.8,6.6,5.3L19.7,54.7z"/>
	<path class="st0" d="M51.1,51c-1.4,1.4-2.9,2.6-4.6,3.7l2.5,5.2c2.4-1.5,4.7-3.2,6.6-5.3L51.1,51z"/>
	<path class="st0" d="M30.4,64.2v-5.8c-2-0.2-3.9-0.7-5.8-1.3l-2.5,5.2C24.7,63.3,27.5,63.9,30.4,64.2z"/>
	<path class="st0" d="M41.6,57.1c-1.8,0.6-3.8,1.1-5.8,1.3v5.8c2.9-0.3,5.7-0.9,8.3-1.9L41.6,57.1z"/>
	<path class="st0" d="M62.8,42.7l-5.7-1.3c-0.6,1.9-1.5,3.7-2.6,5.3l4.5,3.6C60.7,48,61.9,45.4,62.8,42.7z"/>
	<path class="st0" d="M46.5,11.5c1.7,1,3.2,2.3,4.6,3.7l4.5-3.6c-2-2.1-4.2-3.8-6.6-5.3L46.5,11.5z"/>
</g>
</svg>
