<?xml version="1.0" encoding="utf-8"?>
<!-- Generator: Adobe Illustrator 27.2.0, SVG Export Plug-In . SVG Version: 6.00 Build 0)  -->
<svg version="1.1" id="Layer_2_00000065789857722724704750000007808076653863973800_"
	 xmlns="http://www.w3.org/2000/svg" xmlns:xlink="http://www.w3.org/1999/xlink" x="0px" y="0px" viewBox="0 0 58 58.1"
	 style="enable-background:new 0 0 58 58.1;" xml:space="preserve">
<style type="text/css">
	.st0{fill:#FFFFFF;}
</style>
<g>
	<path class="st0" d="M20.9,58.1h5.3l-3-3h-5.3C18.8,56.1,19.9,57.1,20.9,58.1z"/>
	<path class="st0" d="M3,40.3V35l-3-3v5.4C1,38.4,2,39.4,3,40.3z"/>
	<path class="st0" d="M3,48.5v-6.8c-1-1-2-2-3-3v6.8L3,48.5L3,48.5z"/>
	<path class="st0" d="M12.6,58.1h6.9c-1-1-2-2-3-3H9.6L12.6,58.1z"/>
	<polygon class="st0" points="8.2,55.1 3,55.1 3,50 0,47 0,58.1 11.2,58.1 	"/>
</g>
<path class="st0" d="M0.1,0v58.1h57.8V0H0.1z M56.9,57.1H1.1v-56h55.8C56.9,1.1,56.9,57.1,56.9,57.1z"/>
<path class="st0" d="M17.3,15.9c0.4,0.4,0.4,1,0,1.4l0,0c-0.4,0.4-1,0.4-1.4,0L4.8,5.1C4.7,5,4.7,4.9,4.8,4.8l0,0
	c0.1-0.1,0.2-0.1,0.3,0L17.3,15.9L17.3,15.9z"/>
<path class="st0" d="M18.7,29.3L18.7,29.3L18.7,29.3L18.7,29.3l7.7-0.3c0,0,0.2,0,0.2,0.3l0,0c0,0,0,0.3-0.2,0.3L18.7,29.3z"/>
<path class="st0" d="M0.1,20.9v5.3l3-3v-5.3C2.1,18.8,1.1,19.9,0.1,20.9z"/>
<path class="st0" d="M17.9,3h5.4l3-3h-5.4C19.9,1,18.9,2,17.9,3z"/>
<path class="st0" d="M9.7,3h6.8c1-1,2-2,3-3h-6.8L9.7,3L9.7,3z"/>
<path class="st0" d="M0.1,12.6v6.9c1-1,2-2,3-3V9.6L0.1,12.6z"/>
<polygon class="st0" points="3.1,8.2 3.1,3 8.3,3 11.3,0 0.1,0 0.1,11.2 "/>
<g>
	<path class="st0" d="M37.1,0h-5.3l3,3h5.3C39.1,2,38.1,1,37.1,0z"/>
	<path class="st0" d="M54.9,17.8v5.4l3,3v-5.4C56.9,19.8,55.9,18.8,54.9,17.8z"/>
	<path class="st0" d="M54.9,9.6v6.8c1,1,2,2,3,3v-6.8L54.9,9.6L54.9,9.6z"/>
	<path class="st0" d="M45.3,0h-6.9c1,1,2,2,3,3h6.8L45.3,0z"/>
	<polygon class="st0" points="49.7,3 54.9,3 54.9,8.2 57.9,11.2 57.9,0 46.7,0 	"/>
</g>
<g>
	<path class="st0" d="M58,36.9v-5.3l-3,3v5.3C56,38.9,57,37.9,58,36.9z"/>
	<path class="st0" d="M40.2,54.8h-5.4l-3,3h5.4C38.2,56.8,39.2,55.8,40.2,54.8z"/>
	<path class="st0" d="M48.4,54.8h-6.8c-1,1-2,2-3,3h6.8L48.4,54.8L48.4,54.8z"/>
	<path class="st0" d="M58,45.2v-6.9c-1,1-2,2-3,3v6.8C55,48.2,58,45.2,58,45.2z"/>
	<polygon class="st0" points="55,49.6 55,54.8 49.8,54.8 46.8,57.8 58,57.8 58,46.6 	"/>
</g>
<path class="st0" d="M39.9,29.3L39.9,29.3L39.9,29.3L39.9,29.3l-7.7,0.3c0,0-0.2,0-0.2-0.3l0,0c0,0,0-0.3,0.2-0.3L39.9,29.3z"/>
<path class="st0" d="M29.1,18.7L29.1,18.7L29.1,18.7L29.1,18.7l0.3,7.7c0,0,0,0.2-0.3,0.2l0,0c0,0-0.3,0-0.3-0.2L29.1,18.7z"/>
<path class="st0" d="M29.1,40.1L29.1,40.1L29.1,40.1L29.1,40.1l-0.3-7.7c0,0,0-0.2,0.3-0.2l0,0c0,0,0.3,0,0.3,0.2L29.1,40.1z"/>
<path class="st0" d="M40.7,42.3c-0.4-0.4-0.4-1,0-1.4l0,0c0.4-0.4,1-0.4,1.4,0l11.1,12.2c0.1,0.1,0.1,0.2,0,0.3l0,0
	c-0.1,0.1-0.2,0.1-0.3,0L40.7,42.3L40.7,42.3z"/>
<path class="st0" d="M15.9,40.9c0.4-0.4,1-0.4,1.4,0l0,0c0.4,0.4,0.4,1,0,1.4L5.1,53.4c-0.1,0.1-0.2,0.1-0.3,0l0,0
	c-0.1-0.1-0.1-0.2,0-0.3L15.9,40.9L15.9,40.9z"/>
<path class="st0" d="M42.1,17.3c-0.4,0.4-1,0.4-1.4,0l0,0c-0.4-0.4-0.4-1,0-1.4L52.9,4.8c0.1-0.1,0.2-0.1,0.3,0l0,0
	c0.1,0.1,0.1,0.2,0,0.3L42.1,17.3L42.1,17.3z"/>
</svg>
