<?xml version="1.0" encoding="utf-8"?>
<!-- Generator: Adobe Illustrator 27.2.0, SVG Export Plug-In . SVG Version: 6.00 Build 0)  -->
<svg version="1.1" id="Layer_2_00000065789857722724704750000007808076653863973800_"
	 xmlns="http://www.w3.org/2000/svg" xmlns:xlink="http://www.w3.org/1999/xlink" x="0px" y="0px" viewBox="0 0 60 60"
	 style="enable-background:new 0 0 60 60;" xml:space="preserve">
<style type="text/css">
	.st0{fill:#FFFFFF;}
</style>
<g>
	<path class="st0" d="M20.5,30.2c2,0.1,7.4,0.6,7.1,0C27.9,29.6,22.5,30.1,20.5,30.2z"/>
	<path class="st0" d="M19.7,30.2c0,0,0.3,0,0.8,0C20,30.2,19.7,30.2,19.7,30.2z"/>
	<path class="st0" d="M40.9,30.2c0,0-0.3,0-0.8,0C40.6,30.2,40.9,30.2,40.9,30.2z"/>
	<path class="st0" d="M33,30.2c-0.3,0.6,5.1,0.1,7.1,0C38.1,30.1,32.7,29.6,33,30.2z"/>
	<path class="st0" d="M30,27.7c0.6,0.3,0.1-5.1,0-7.1C29.9,22.6,29.4,28,30,27.7z"/>
	<path class="st0" d="M30,19.8c0,0,0,0.3,0,0.8C30,20.1,30,19.8,30,19.8z"/>
	<path class="st0" d="M30,33.3c-0.6-0.3-0.1,5.1,0,7.1C30.1,38.4,30.6,33,30,33.3z"/>
	<path class="st0" d="M30,41.2c0,0,0-0.3,0-0.8C30,40.9,30,41.2,30,41.2z"/>
	<path class="st0" d="M59.1,12.2V1.1H47.8L48.7,2h-1.4l-0.9-0.9h-6.9c0.3,0.3,0.6,0.6,0.9,0.9H39c-0.3-0.3-0.6-0.6-0.9-0.9h-5.3
		L33.7,2h-7.6l0.9-0.9h-5.4c-0.3,0.3-0.6,0.6-0.9,0.9h-1.3c0.3-0.3,0.6-0.6,0.9-0.9h-6.8L12.7,2h-1.5l0.9-0.9H1v11.2l1-1v1.4l-1,1
		v6.9c0.3-0.3,0.7-0.7,1-1v1.4c-0.3,0.4-0.7,0.7-1,1.1v5.3l1-1v7.7l-1-1v5.4c0.3,0.3,0.7,0.7,1,1v1.3c-0.3-0.3-0.7-0.7-1-1v6.8l1,1
		v1.5l-1-1V59h11.2l-1.1-1.1h1.4l1.1,1.1h6.9c-0.4-0.4-0.7-0.7-1.1-1.1h1.4c0.4,0.4,0.8,0.7,1.1,1.1h5.3l-1.1-1.1H34L32.9,59h5.4
		c0.4-0.4,0.7-0.7,1.1-1.1h1.3c-0.4,0.4-0.7,0.7-1.1,1.1h6.8l1.1-1.1H49L47.9,59H59V47.8l-1,1v-1.4l1-1v-6.9c-0.3,0.3-0.7,0.7-1,1
		v-1.4c0.3-0.3,0.7-0.7,1-1v-5.3l-1,1v-7.6l1,1v-5.4c-0.3-0.4-0.7-0.7-1-1v-1.3c0.3,0.3,0.7,0.7,1,1v-6.8l-1-1v-1.6L59.1,12.2z
		 M3,48.4l1,1v-6.8c-0.3-0.3-0.7-0.7-1-1v-1.3c0.3,0.3,0.7,0.7,1,1v-5.3l-1-1v-9.5l1-1V19c-0.3,0.3-0.7,0.6-1,1v-1.4
		c0.3-0.3,0.7-0.7,1-1v-6.9l-1,1v-1.4l1-1V4.1h0.9v5.2c0.3,0.3,0.7,0.7,1,1v1.4l-1-1v6.9c0.3,0.3,0.7,0.7,1,1V20
		c-0.3-0.3-0.7-0.7-1-1v5.3l1,1V35l-0.8,0.8v5.3c0.3-0.2,0.5-0.5,0.8-0.7v1.4c-0.3,0.3-0.5,0.5-0.8,0.8v6.8l0.8-0.8v1.4
		c-0.3,0.3-0.6,0.6-0.8,0.8V56H4v-5.1l-1-1V48.4z M48.5,56.9l0.9-0.9h-6.8c-0.3,0.3-0.6,0.6-0.9,0.9h-1.3c0.3-0.3,0.6-0.6,0.9-0.9
		h-5.3L35,56.9h-9.8L24.2,56h-5.3c0.3,0.3,0.6,0.6,0.9,0.9h-1.4c-0.3-0.3-0.6-0.6-0.9-0.9h-6.9l0.9,0.9h-1.4L9.2,56H8v-8.3
		c-0.4,0.4-0.8,0.8-1.2,1.2v-1.4l1.3-1.3v-6.8c-0.4,0.4-0.9,0.9-1.3,1.3v-1.3c0.4-0.4,0.9-0.8,1.3-1.3v-5.4l-1.3,1.3v-7.9l1.1,1.1
		V22c-0.4-0.4-0.7-0.7-1.1-1.1v-1.4c0.4,0.4,0.7,0.7,1.1,1.1v-6.9l-1.1-1.1v-1.4c0.4,0.4,0.7,0.7,1.1,1.1V4.1h1.2l1-1h1.5l-1,1h6.8
		c0.3-0.3,0.7-0.7,1-1h1.3c-0.3,0.3-0.7,0.7-1,1h5.3l1-1h9.6l1,1h5.3c-0.3-0.3-0.7-0.7-1-1h1.4c0.3,0.3,0.7,0.7,1,1h6.9l-1-1h1.4
		l1,1h1.3v8.1c0.3-0.3,0.7-0.7,1-1v1.5l-1,1v6.8c0.3-0.3,0.7-0.7,1-1v1.3c-0.3,0.3-0.7,0.7-1,1v5.4l1-1v7.7l-1-1v5.3
		c0.3,0.3,0.7,0.7,1,1.1v1.4c-0.3-0.3-0.7-0.7-1-1v6.9l1,1v1.4c-0.3-0.3-0.7-0.7-1-1V56h-1.2L50,56.9H48.5z M57.1,11.8L56,10.7v6.8
		c0.4,0.4,0.7,0.7,1.1,1.1v1.3c-0.4-0.3-0.7-0.7-1.1-1v5.3l1.1,1.1v9.5L56,35.8v5.3c0.4-0.3,0.7-0.7,1.1-1v1.4
		c-0.4,0.4-0.7,0.7-1.1,1.1v6.9l1.1-1.1v1.4L56,50.8V56h-0.9v-5.2c-0.3-0.3-0.7-0.7-1-1v-1.4l1,1v-6.9c-0.3-0.3-0.7-0.7-1-1v-1.4
		c0.3,0.3,0.7,0.7,1,1v-5.3l-1-1v-9.5l1-1v-5.3c-0.3,0.3-0.7,0.6-1,1v-1.3c0.3-0.3,0.7-0.7,1-1v-6.8l-1,1v-1.5c0.3-0.3,0.7-0.7,1-1
		V4.1H56v5.1l1.1,1V11.8z"/>
	<path class="st0" d="M20.4,19.7c0.3-0.4,0.3-0.9,0-1.3c-0.2,0-10-10.3-10.3-9.9c-0.4,0.3,9.1,10.9,9.1,11.2
		C19.6,20.1,20.1,20.1,20.4,19.7z"/>
	<path class="st0" d="M19.3,40.5c0,0.3-9.5,10.9-9.1,11.2c0.3,0.4,10-9.9,10.3-9.9c0.3-0.4,0.3-0.9,0-1.3
		C20.2,40.1,19.7,40.1,19.3,40.5z"/>
	<path class="st0" d="M39.7,40.4c-0.3,0.4-0.3,0.9,0,1.3c0.2,0,10,10.3,10.3,9.9c0.4-0.3-9.1-10.9-9.1-11.2C40.5,40,40,40,39.7,40.4
		z"/>
	<path class="st0" d="M40.8,19.6c0-0.3,9.5-10.9,9.1-11.2c-0.3-0.4-10,9.9-10.3,9.9c-0.3,0.4-0.3,0.9,0,1.3S40.4,20,40.8,19.6z"/>
</g>
</svg>
